# xmcd
#
# Track frame offsets:
#  150
#  17755
#  39355
#  66915
#  88550
#  101700
#  118000
#  152610
#  169910
#  205755
#  227190
#  245245
#
# Disc length: 3503 seconds
#
# Revision: 0
# Processed by: cddbd v1.5.1PL0 Copyright (c) Steve Scherf et al.
# Submitted via: Collectorz.com_Music_Collector 6.9
#
DISCID=9e0dad0c
DTITLE=Forrest McDonald - Colorblind
DYEAR=2004
DGENRE=Blues
TTITLE0=Big John
TTITLE1=I Wasn't Looking For Trouble
TTITLE2=Only Moments
TTITLE3=Colorblind
TTITLE4=Oh Happy Day
TTITLE5=Guitar String Blues
TTITLE6=Thru These Days
TTITLE7=I'm Gonna Drop My Troubles
TTITLE8=Blues In The Basement
TTITLE9=Riding On the Blues Train
TTITLE10=River Of Tears
TTITLE11=Going Back To Memphis
EXTD=
EXTT0=
EXTT1=
EXTT2=
EXTT3=
EXTT4=
EXTT5=
EXTT6=
EXTT7=
EXTT8=
EXTT9=
EXTT10=
EXTT11=
PLAYORDER=
